<svg version="1" xmlns="http://www.w3.org/2000/svg" width="24" height="24" viewBox="0 0 24 24"><path d="M12 0c-6.617 0-12 5.383-12 12s5.383 12 12 12 12-5.383 12-12-5.383-12-12-12zm9.501 17.518l-4.198.967-1.564-1.746 1.744-5.385 2.687-1.444 2.775 3.194c-.161 1.599-.673 3.091-1.444 4.414zm-14.775.969l-4.229-.974c-.765-1.314-1.275-2.794-1.438-4.379l2.808-3.232 2.623 1.282 1.8 5.555-1.564 1.748zm-3.501-9.371l-2.207 2.54c.067-2.171.758-4.188 1.912-5.868l.295 3.328zm5.994 7.243l-1.731-5.341 4.525-3.298 4.526 3.298-1.729 5.341h-5.591zm11.582-7.246l.291-3.295c1.136 1.665 1.815 3.659 1.889 5.804l-2.18-2.509zm-.612-4.432l-.379 4.287-2.525 1.356-4.772-3.478v-3.262l3.886-1.66c1.457.639 2.743 1.587 3.79 2.757zm-5.177-3.252l-2.999 1.281-3.008-1.285c.954-.27 1.956-.425 2.995-.425 1.045 0 2.053.156 3.012.429zm-7.398.489l3.9 1.666v3.263l-4.664 3.399-2.636-1.287-.38-4.303c1.046-1.162 2.328-2.104 3.78-2.738zm-4.297 16.811l3.264.752 1.711 2.863c-1.984-.715-3.704-1.979-4.975-3.615zm6.387 4.026l-2.184-3.654 1.559-1.741h5.871l1.559 1.74-2.176 3.646c-.753.163-1.532.254-2.333.254-.788 0-1.555-.087-2.296-.245zm6.041-.425l1.702-2.851 3.233-.745c-1.264 1.623-2.968 2.88-4.935 3.596z" style="fill:#464646;"/></svg>